<svg width="38" height="38" viewBox="0 0 38 38" fill="none" xmlns="http://www.w3.org/2000/svg">
<path d="M33.2498 9.49984C32.8299 9.49984 32.4272 9.66665 32.1302 9.96358C31.8333 10.2605 31.6665 10.6632 31.6665 11.0832V26.9165C31.6665 28.1763 31.1661 29.3845 30.2753 30.2753C29.3845 31.1661 28.1763 31.6665 26.9165 31.6665H11.0832C10.6632 31.6665 10.2605 31.8333 9.96358 32.1302C9.66665 32.4272 9.49984 32.8299 9.49984 33.2498C9.49984 33.6698 9.66665 34.0725 9.96358 34.3694C10.2605 34.6664 10.6632 34.8332 11.0832 34.8332H26.9165C29.0161 34.8332 31.0298 33.9991 32.5144 32.5144C33.9991 31.0298 34.8332 29.0161 34.8332 26.9165V11.0832C34.8332 10.6632 34.6664 10.2605 34.3694 9.96358C34.0725 9.66665 33.6698 9.49984 33.2498 9.49984ZM28.4998 23.7498V7.9165C28.4998 6.65673 27.9994 5.44854 27.1086 4.55775C26.2178 3.66695 25.0096 3.1665 23.7498 3.1665H7.9165C6.65673 3.1665 5.44854 3.66695 4.55775 4.55775C3.66695 5.44854 3.1665 6.65673 3.1665 7.9165V23.7498C3.1665 25.0096 3.66695 26.2178 4.55775 27.1086C5.44854 27.9994 6.65673 28.4998 7.9165 28.4998H23.7498C25.0096 28.4998 26.2178 27.9994 27.1086 27.1086C27.9994 26.2178 28.4998 25.0096 28.4998 23.7498ZM15.8332 6.33317H18.9998V14.0282L18.4298 13.5532C18.1453 13.3162 17.7868 13.1864 17.4165 13.1864C17.0462 13.1864 16.6877 13.3162 16.4032 13.5532L15.8332 14.0282V6.33317ZM6.33317 23.7498V7.9165C6.33317 7.49658 6.49999 7.09385 6.79692 6.79692C7.09385 6.49999 7.49658 6.33317 7.9165 6.33317H12.6665V17.4165C12.6665 17.7192 12.7532 18.0155 12.9164 18.2704C13.0797 18.5253 13.3125 18.7281 13.5874 18.8547C13.8623 18.9813 14.1678 19.0265 14.4676 18.9849C14.7674 18.9433 15.049 18.8166 15.279 18.6198L17.4165 16.8307L19.554 18.6198C19.8408 18.8651 20.2058 18.9999 20.5832 18.9998C20.8122 18.9982 21.0386 18.9497 21.2482 18.8573C21.523 18.7301 21.7556 18.5268 21.9184 18.2714C22.0811 18.016 22.1673 17.7193 22.1665 17.4165V6.33317H23.7498C24.1698 6.33317 24.5725 6.49999 24.8694 6.79692C25.1664 7.09385 25.3332 7.49658 25.3332 7.9165V23.7498C25.3332 24.1698 25.1664 24.5725 24.8694 24.8694C24.5725 25.1664 24.1698 25.3332 23.7498 25.3332H7.9165C7.49658 25.3332 7.09385 25.1664 6.79692 24.8694C6.49999 24.5725 6.33317 24.1698 6.33317 23.7498Z" fill="#143362"/>
</svg>
