<svg width="40" height="40" viewBox="0 0 40 40" fill="none" xmlns="http://www.w3.org/2000/svg">
<path d="M11.918 35.1665C11.5013 34.7498 11.293 34.2565 11.293 33.6865C11.293 33.1165 11.5013 32.6237 11.918 32.2082L24.1263 19.9998L11.8763 7.74984C11.4874 7.36095 11.293 6.87484 11.293 6.2915C11.293 5.70817 11.5013 5.20817 11.918 4.7915C12.3346 4.37484 12.828 4.1665 13.398 4.1665C13.968 4.1665 14.4607 4.37484 14.8763 4.7915L28.8763 18.8332C29.043 18.9998 29.1613 19.1804 29.2313 19.3748C29.3013 19.5693 29.3357 19.7776 29.3346 19.9998C29.3346 20.2221 29.2996 20.4304 29.2296 20.6248C29.1596 20.8193 29.0419 20.9998 28.8763 21.1665L14.8346 35.2082C14.4457 35.5971 13.9663 35.7915 13.3963 35.7915C12.8263 35.7915 12.3335 35.5832 11.918 35.1665Z" fill="white"/>
</svg>
