<svg width="149" height="94" viewBox="0 0 149 94" fill="none" xmlns="http://www.w3.org/2000/svg">
<path d="M139.478 11.5177C139.478 11.627 139.478 11.7636 139.45 11.8455C139.311 12.9107 139.311 13.976 139.394 15.0685C139.45 15.3417 139.506 15.6148 139.73 15.8333C140.093 16.243 140.651 16.1611 140.874 15.6694C140.986 15.4236 140.986 15.1778 140.93 14.932C140.651 13.894 140.595 12.8015 140.567 11.7362C140.567 11.6816 140.567 11.5997 140.567 11.5177C140.874 11.4904 141.154 11.4631 141.405 11.4631C141.6 11.4358 141.768 11.4085 141.908 11.3265C142.326 11.108 142.326 10.6437 141.88 10.4252C141.712 10.3432 141.489 10.3159 141.293 10.3159C140.595 10.3432 139.897 10.3432 139.199 10.3432C138.948 10.3432 138.696 10.3706 138.445 10.3979C138.305 10.4252 138.138 10.4252 138.026 10.5071C137.831 10.5891 137.719 10.7256 137.719 10.9168C137.747 11.108 137.831 11.2173 138.026 11.2992C138.138 11.3812 138.278 11.4085 138.417 11.4085C138.752 11.4358 139.115 11.4904 139.478 11.5177ZM147.157 12.7742C147.157 12.8015 147.185 12.8288 147.185 12.8288C147.297 13.5663 147.408 14.2764 147.492 14.9866C147.52 15.2324 147.548 15.4509 147.715 15.6421C148.078 16.1064 148.637 16.0518 148.888 15.5602C149 15.3143 149.028 15.0685 148.972 14.7954C148.804 13.976 148.721 13.1566 148.553 12.3645C148.441 11.8728 148.302 11.4085 148.162 10.9715C148.078 10.6983 147.883 10.5071 147.548 10.4798C147.213 10.4252 146.961 10.5891 146.822 10.8349C146.654 11.0534 146.515 11.2719 146.403 11.5177C146.208 11.9547 146.04 12.3918 145.817 12.8015C145.789 12.9107 145.761 12.9927 145.705 13.0746C145.677 13.02 145.649 12.9927 145.649 12.9927C145.286 12.3098 144.951 11.627 144.588 10.9715C144.532 10.9168 144.504 10.8622 144.476 10.8076C144.309 10.5618 144.113 10.4252 143.806 10.4252C143.527 10.4525 143.304 10.6164 143.164 10.8622C143.108 10.9715 143.108 11.0534 143.08 11.1627C142.969 12.0367 142.829 12.9107 142.717 13.7848C142.661 14.2764 142.633 14.7681 142.633 15.2597C142.606 15.369 142.633 15.5055 142.689 15.6148C142.745 15.8333 142.913 15.9699 143.136 15.9972C143.415 16.0245 143.611 15.9426 143.695 15.724C143.778 15.5602 143.806 15.4236 143.834 15.287C143.946 14.7954 144.03 14.3311 144.113 13.8667C144.169 13.5936 144.197 13.3751 144.281 13.0746C144.337 13.1839 144.393 13.2658 144.449 13.3477C144.7 13.6755 144.951 14.0033 145.258 14.2764C145.565 14.4949 145.817 14.4676 146.068 14.2218C146.124 14.1672 146.152 14.1399 146.208 14.0852C146.459 13.7028 146.766 13.3204 147.017 12.938C147.073 12.8834 147.101 12.8288 147.157 12.7742Z" fill="#3A3B7B"/>
<path d="M82.8202 12.0544C82.626 12.5735 82.589 12.9475 82.6786 13.2583C82.7776 13.681 83.0345 13.8194 83.3832 13.7119C86.6629 12.9185 93.8547 15.1703 96.5173 15.7979C97.1452 15.9297 97.6561 15.1368 97.2276 14.4258C96.6022 13.7373 89.4136 10.7897 86.6707 10.6289C85.5956 10.5695 83.6735 10.2998 82.8202 12.0544Z" fill="#3A3B7B"/>
<path d="M110.927 2.51269C111.276 2.71004 111.472 2.89829 111.568 3.10863C111.712 3.38454 111.636 3.57543 111.395 3.67284C109.227 4.70785 106.342 9.16378 105.177 10.7006C104.895 11.0541 104.244 10.8487 104.146 10.2673C104.166 9.60995 106.723 4.77427 108.15 3.4572C108.711 2.94297 109.638 1.934 110.927 2.51269Z" fill="#3A3B7B"/>
<path d="M93.662 0.319001C94.0819 0.00941031 94.5183 -0.0990795 94.7412 0.102115C98.0121 2.8385 99.7467 7.17181 100.821 11.1389C100.861 11.2313 100.864 11.3639 100.831 11.5023C100.818 11.6205 100.73 11.7454 100.589 11.8421C100.44 11.9488 100.311 11.9813 100.25 11.8894C98.8163 9.98197 90.6283 2.56064 93.662 0.319001Z" fill="#3A3B7B"/>
<path d="M24.3956 47.7613C25.1795 47.1904 26.0318 46.7151 26.9337 46.3462C27.8773 46.0824 28.883 46.126 29.7989 46.471C30.7147 46.816 31.4909 47.4432 32.0099 48.258C32.4741 49.0706 32.6557 50.0089 32.5276 50.9314C32.3994 51.8537 31.9684 52.7105 31.2992 53.3725C30.7804 53.9092 30.1915 54.3766 29.548 54.7629C26.6799 56.5754 23.7864 58.2884 20.8929 60.1009C20.3009 60.5545 19.6728 60.9615 19.0147 61.3175C18.0137 61.8059 16.8697 61.9366 15.7806 61.6872C14.6914 61.4381 13.7256 60.8241 13.0501 59.9521C12.5451 59.3345 12.119 58.6592 11.781 57.9409C9.03985 52.305 6.19717 46.6938 3.5575 40.9584C2.33919 38.4758 1.34933 35.6205 0.384842 32.8646C-0.0324408 32.0639 -0.113927 31.1356 0.157735 30.2769C0.429397 29.4183 1.03277 28.6972 1.83951 28.2671C2.64626 27.8369 3.59271 27.7317 4.4776 27.9736C5.36249 28.2155 6.116 28.7856 6.57786 29.5625C7.99751 31.408 9.2542 33.3682 10.3343 35.422C13.0755 40.3875 15.6898 45.353 18.3294 50.1697C18.4831 50.4359 18.6526 50.6927 18.837 50.9393C20.8238 50.1222 22.6925 49.0538 24.3956 47.7613Z" fill="#3A3B7B"/>
<path d="M52.7378 46.0292C46.4687 53.2043 35.9608 51.3919 30.6815 42.1559C26.925 35.6013 26.2652 24.7763 34.438 17.9486C36.1833 16.5192 38.2701 15.5454 40.5041 15.1182C43.2431 14.7341 46.0362 15.2068 48.4841 16.4687C50.9319 17.7307 52.9094 19.7172 54.1339 22.1446C58.601 30.0896 57.9664 40.2193 52.7378 46.0292ZM50.1997 29.295C49.5337 27.3426 48.1976 25.6758 46.4179 24.5776C45.4108 23.8755 44.1871 23.5341 42.953 23.611C41.7186 23.6879 40.5492 24.1783 39.6411 24.9997C36.0117 28.1529 35.2501 35.6262 37.8897 40.0704C38.2263 40.7951 38.7203 41.4391 39.3378 41.9574C39.9553 42.4758 40.6812 42.8559 41.4645 43.071C42.2478 43.2863 43.0696 43.3314 43.8727 43.2035C44.6758 43.0753 45.4404 42.7771 46.1135 42.3297C48.0809 40.8375 49.5243 38.7829 50.2429 36.4514C50.9617 34.1198 50.92 31.6271 50.1237 29.3199L50.1997 29.295Z" fill="#3A3B7B"/>
<path d="M78.3222 32.4234C77.6804 32.5584 77.0174 32.5665 76.3722 32.447C75.7272 32.3276 75.1129 32.0833 74.5659 31.7283C74.0872 31.4604 73.6751 31.0922 73.3592 30.6499C73.0435 30.2076 72.832 29.7024 72.7398 29.1705C72.6474 28.6387 72.677 28.0935 72.8258 27.5741C72.9748 27.0547 73.2398 26.5741 73.6014 26.1667C74.2315 25.3481 75.1259 24.762 76.1395 24.5033C78.786 23.752 81.5104 23.2939 84.2615 23.1378C84.866 23.069 85.4784 23.1191 86.0627 23.285C86.6472 23.4511 87.1917 23.7294 87.6647 24.1042C88.1375 24.4788 88.5291 24.9422 88.8165 25.4669C89.1036 25.9917 89.2809 26.5673 89.3378 27.1599C90.1309 30.0711 90.2177 33.1234 89.5915 36.0733C87.3073 45.6071 79.439 48.8843 70.6063 45.8305C68.127 45.014 65.953 43.4927 64.3626 41.4609C62.2412 39.014 60.7372 36.1141 59.9715 32.9945C59.3513 30.2165 59.4192 27.3339 60.1699 24.587C60.9205 21.8401 62.3319 19.3085 64.2864 17.2039C66.1412 14.9164 68.5486 13.1161 71.2917 11.9652C73.025 11.0306 75.0533 10.7649 76.9771 11.2203C77.4135 11.3385 77.8096 11.5687 78.1244 11.8871C78.4392 12.2055 78.6613 12.6005 78.7675 13.0311C78.8737 13.4617 78.8601 13.9122 78.7283 14.336C78.5963 14.7598 78.3511 15.1413 78.0178 15.4411C77.3839 16.0023 76.6953 16.5013 75.9618 16.9308C73.7053 18.3364 71.7417 20.1477 70.1749 22.2688C69.1478 23.6413 68.4405 25.2174 68.1029 26.8859C67.7651 28.5544 67.8053 30.2751 68.2206 31.927C68.7962 34.1792 70.0735 36.2008 71.8754 37.7117C77.4593 42.6775 84.7183 37.8855 83.4493 31.1075C81.5966 31.5545 79.972 32.0262 78.3222 32.4234Z" fill="#3A3B7B"/>
<path d="M112.434 46.4263C104.186 51.392 94.7946 46.4263 92.7386 35.9986C91.2412 28.5502 94.0839 18.1224 104.033 14.1499C106.15 13.3229 108.446 13.0326 110.709 13.3058C113.427 13.7925 115.92 15.1014 117.837 17.048C119.754 18.9945 120.998 21.4805 121.394 24.1557C123.069 33.0191 119.262 42.4787 112.434 46.4263ZM115.303 29.717C115.3 27.6545 114.554 25.6587 113.196 24.0811C112.47 23.1054 111.42 22.4062 110.226 22.1028C109.032 21.7995 107.767 21.9107 106.648 22.4177C102.181 24.3045 99.0332 31.157 100.175 36.1973C100.263 36.9882 100.525 37.751 100.945 38.4323C101.365 39.1135 101.932 39.6968 102.607 40.1415C103.281 40.5859 104.047 40.8811 104.85 41.0061C105.653 41.1309 106.475 41.0828 107.257 40.8649C109.618 40.058 111.662 38.5501 113.105 36.5515C114.547 34.5529 115.316 32.1635 115.303 29.717Z" fill="#3A3B7B"/>
<path d="M129.736 48.5121C129.612 49.4207 129.123 50.2438 128.378 50.8003C127.633 51.3565 126.693 51.6008 125.764 51.479C124.835 51.3572 123.994 50.8793 123.425 50.1506C122.856 49.422 122.607 48.5021 122.731 47.5934C122.856 46.6847 123.344 45.8616 124.089 45.3051C124.834 44.7487 125.774 44.5046 126.703 44.6264C127.632 44.7483 128.474 45.2259 129.042 45.9547C129.611 46.6834 129.861 47.6034 129.736 48.5121ZM127.528 15.019C128.011 14.2978 128.719 13.7486 129.547 13.4533C130.375 13.158 131.278 13.1324 132.122 13.3803C132.98 13.5903 133.738 14.0823 134.27 14.7738C134.801 15.4654 135.073 16.3145 135.041 17.179C134.929 18.5657 134.717 19.943 134.406 21.3004C133.569 25.8937 132.757 30.4867 131.868 35.0304C131.462 36.8429 130.929 38.5808 130.345 40.418C130.142 40.9923 129.803 41.5113 129.356 41.9325C129.077 42.2494 128.722 42.4924 128.322 42.6391C127.923 42.7861 127.492 42.8319 127.069 42.7724C126.647 42.713 126.246 42.5503 125.905 42.2995C125.564 42.0484 125.293 41.7172 125.117 41.3367C124.815 40.6539 124.651 39.9203 124.635 39.1767C124.635 36.0979 124.635 32.9945 124.838 29.8909C125.183 25.4618 125.861 21.0636 126.868 16.7321C126.987 16.1518 127.21 15.5969 127.528 15.0935V15.019Z" fill="#3A3B7B"/>
<path fill-rule="evenodd" clip-rule="evenodd" d="M13.6719 68.4629C13.3722 69.1173 13.29 69.8469 13.4364 70.549C13.5339 71.4745 13.7479 72.3849 14.0735 73.2593C14.4801 74.33 14.9351 75.3889 15.4961 76.6939C15.6251 76.9941 15.76 77.3076 15.901 77.6375C16.6576 79.4054 17.6068 81.6649 18.873 84.9349C19.2314 85.8638 19.5496 86.8004 19.8701 87.7433C19.9996 88.1243 20.1295 88.5066 20.2625 88.8897C20.7392 90.2518 21.5595 91.4754 22.6468 92.4452C23.1084 92.9783 23.7208 93.3667 24.4075 93.5609C25.1076 93.759 25.8522 93.7464 26.5448 93.5249C27.2374 93.3032 27.8458 92.8828 28.2909 92.3183C28.7272 91.7648 28.9867 91.0978 29.0372 90.401C29.3203 89.0437 29.2236 87.6362 28.757 86.3276C28.0165 84.1548 27.173 81.9788 26.2002 79.8505L26.1957 79.8411C24.5955 76.5114 22.9688 73.2046 21.2652 69.8965L21.2524 69.8733C20.7537 69.0114 20.1056 68.241 19.3372 67.5966C18.8383 67.0214 18.1502 66.6334 17.3903 66.4996C16.6142 66.3631 15.8138 66.5007 15.1319 66.888C14.4869 67.2484 13.9755 67.7997 13.6719 68.4629Z" fill="#3A3B7B"/>
<path fill-rule="evenodd" clip-rule="evenodd" d="M38.1137 60.2638C35.6045 59.6281 32.984 59.5355 30.4349 59.9925C28.4604 60.1827 26.5185 60.6282 25.1701 61.5107C24.4842 61.9598 23.9297 62.5365 23.6213 63.2695C23.3112 64.0065 23.2716 64.8494 23.5257 65.7885C23.9898 67.5088 24.5924 69.1814 25.1928 70.8486L25.2901 71.1186L25.2925 71.1246C27.1005 75.9681 28.9257 80.7952 30.7676 85.6057C30.9823 86.3638 31.2861 87.0951 31.6726 87.7849L31.6799 87.7976C32.1905 88.6546 32.8455 89.421 33.6171 90.0648C34.003 90.4187 34.4802 90.6636 34.9977 90.7731C35.5202 90.8834 36.0637 90.8514 36.5688 90.6802C37.0741 90.5092 37.5215 90.2058 37.8625 89.8028C38.198 89.4065 38.4177 88.9291 38.4983 88.421C38.8312 87.0406 38.7246 85.5935 38.1924 84.2741C38.0264 83.83 37.8962 83.3762 37.7589 82.8986C37.7131 82.7393 37.6667 82.5772 37.6177 82.4122C41.8338 80.8001 46.3198 78.6324 47.8972 73.5896C48.515 71.847 48.5665 69.9599 48.0445 68.1873C47.5222 66.4127 46.4505 64.8398 44.9771 63.6852C42.9717 62.0688 40.6292 60.901 38.1137 60.2638ZM31.1586 66.4491C31.2416 66.4257 31.3253 66.404 31.4091 66.3838C34.1539 65.9617 36.9621 66.5241 39.3168 67.9671C40.3544 68.673 40.7795 69.4574 40.8525 70.2121C40.9279 70.9892 40.639 71.8312 40.0588 72.6406C38.9624 74.1697 36.9615 75.3935 35.1541 75.6216C33.8365 72.6534 32.4985 69.5651 31.1586 66.4491Z" fill="#3A3B7B"/>
<path d="M54.8419 54.8304C57.83 53.4804 61.5314 53.2472 64.4277 54.1964C65.1572 54.4042 65.79 54.8538 66.218 55.4682C66.6433 56.0787 66.8396 56.8145 66.774 57.55C66.7698 58.0275 66.6499 58.4973 66.4245 58.921C66.1951 59.3525 65.8628 59.7235 65.4558 60.0029C65.0488 60.2821 64.579 60.4616 64.0863 60.5257C63.5933 60.59 63.092 60.5372 62.6244 60.3717L62.5888 60.3591L62.5554 60.3419C62.3162 60.2194 62.062 60.1272 61.7991 60.0672L61.7825 60.0636C59.7451 59.5342 57.8232 60.4113 57.1212 61.4891C56.7863 62.003 56.7448 62.5217 57.0237 62.9936C57.3223 63.499 58.0548 64.0661 59.5369 64.4703C59.9445 64.5797 60.3623 64.6854 60.7861 64.7927C61.9581 65.0896 63.1761 65.3979 64.3538 65.8253L64.3583 65.827C69.7917 67.8493 71.8149 72.0375 71.1223 75.9768C70.4371 79.8724 67.1112 83.4177 62.1097 84.254C60.2898 84.6486 58.3958 84.5717 56.6152 84.031C54.8302 83.4886 53.2212 82.499 51.9481 81.1599L51.9149 81.125C51.513 80.6205 51.2427 80.0278 51.1229 79.399C51.0126 78.8315 51.0707 78.245 51.2899 77.7085C51.5079 77.1753 51.8766 76.7138 52.3523 76.3775C52.8549 75.9964 53.4607 75.7676 54.0948 75.7199C54.7267 75.6724 55.3591 75.8068 55.914 76.1062C56.4683 76.3682 56.9839 76.7023 57.4466 77.0997L57.4553 77.1069C58.274 77.8393 59.2644 78.0301 60.2142 77.8533C61.1778 77.674 62.0839 77.1163 62.6667 76.3763C63.2457 75.6409 63.4781 74.7674 63.2023 73.9194C62.9247 73.0652 62.0901 72.1082 60.2563 71.3081C59.777 71.109 59.28 70.9484 58.7629 70.7921C58.6235 70.75 58.4817 70.708 58.3383 70.6654C57.956 70.5519 57.5626 70.435 57.1769 70.3062C56.9113 70.2176 56.6478 70.1337 56.3868 70.0504C55.6735 69.8232 54.9781 69.6017 54.3089 69.3046C52.8523 68.8195 51.5939 67.888 50.721 66.648C49.8444 65.403 49.4034 63.9142 49.4634 62.404C49.4681 58.7234 51.8378 56.1877 54.8419 54.8304Z" fill="#3A3B7B"/>
<path d="M92.7245 54.4384C92.1451 54.1615 91.5044 54.0301 90.8603 54.0559C90.216 54.0819 89.5885 54.2642 89.0344 54.5868C88.4838 54.9071 88.0227 55.3556 87.6924 55.8925C87.3895 56.3446 87.1798 56.8501 87.0753 57.381C86.9708 57.9115 86.9733 58.4567 87.0825 58.9859C87.1904 59.666 87.3101 60.3275 87.4282 60.9798C87.6238 62.0593 87.8141 63.1145 87.9397 64.1903L87.9444 64.2176C88.2303 65.9048 88.3799 67.6113 88.3933 69.3213L88.3946 69.3456C88.4923 71.1923 87.849 73.0031 86.6027 74.3937L86.583 74.4184C86.1775 74.9268 85.6353 75.3148 85.017 75.539C84.3988 75.7632 83.7292 75.8148 83.0827 75.6879C82.4363 75.5609 81.8388 75.2607 81.3569 74.8205C80.875 74.3803 80.5274 73.816 80.3539 73.1939C79.9835 71.8827 79.7692 70.5341 79.7147 69.175L80.3473 59.323C80.3567 59.1943 80.3673 59.0623 80.3782 58.929C80.4022 58.6298 80.4269 58.3251 80.4371 58.0408C80.452 57.6225 80.4393 57.1923 80.3396 56.7852C80.2377 56.369 80.0438 55.9732 79.6998 55.6361C79.3592 55.3023 78.8994 55.0562 78.3209 54.8886C77.2747 54.5923 76.3901 54.6017 75.6529 54.9077C74.9154 55.2138 74.4101 55.7819 74.0525 56.4383C73.6976 57.0891 73.4697 57.8595 73.2973 58.6313C73.1693 59.2039 73.0665 59.8051 72.9688 60.3773C72.935 60.5745 72.902 60.7681 72.8686 60.9561L72.8677 60.9617C72.3449 64.0998 72.1893 67.2861 72.4039 70.4587C72.4439 72.1732 72.8094 73.8656 73.482 75.4494C74.2409 77.4929 75.6153 79.2634 77.4239 80.5273C79.2364 81.7938 81.3992 82.4916 83.6261 82.5285C85.8531 82.5653 88.0389 81.9394 89.8942 80.7339C91.7464 79.53 93.1819 77.8047 94.0108 75.786C95.1702 73.2146 95.7147 70.418 95.6023 67.6096C95.5342 65.5592 95.4201 63.4931 95.3067 61.4374C95.2509 60.4291 95.1954 59.4229 95.1456 58.4228C95.1204 57.42 94.7824 56.4487 94.1766 55.6392C93.8018 55.1275 93.3029 54.7148 92.7245 54.4384Z" fill="#3A3B7B"/>
<path d="M113.232 69.8869C113.173 69.9599 113.111 70.0355 113.047 70.1141C112.575 67.4547 112.139 64.7961 111.701 62.1335C111.544 61.1782 111.387 60.2188 111.228 59.2622L111.21 59.1555L111.152 59.0633C111.043 58.8898 111.032 58.7196 111.032 58.3567V58.3148L111.025 58.2733C110.907 57.5239 110.561 56.8264 110.031 56.2723C109.503 55.7197 108.818 55.3351 108.064 55.1681C107.311 54.9865 106.52 55.0265 105.79 55.2833C105.062 55.5395 104.427 55.9999 103.965 56.6069C103.581 57.0726 103.266 57.5892 103.031 58.1412C102.495 59.3304 101.955 60.5225 101.414 61.7178L101.404 61.7385C100.052 64.7226 98.6915 67.7268 97.3701 70.7547L97.366 70.7645C96.5548 72.7277 95.8852 74.7964 95.2179 76.8586C95.0846 77.2703 94.9514 77.6817 94.8171 78.0921C94.5761 78.7429 94.4707 79.4341 94.5069 80.1252C94.4631 80.7438 94.6144 81.361 94.9409 81.8932C95.2739 82.4362 95.7726 82.8634 96.3667 83.1149C96.9963 83.3849 97.7002 83.4422 98.3671 83.2778C99.0325 83.1136 99.6234 82.738 100.047 82.2098C100.587 81.5592 101.052 80.8497 101.432 80.0979C102.551 77.8581 103.621 75.5909 104.686 73.3336C105.098 72.4604 105.498 71.6785 105.954 70.8269C105.985 70.9318 106.017 71.0343 106.05 71.1369C106.528 73.193 107.333 75.1624 108.438 76.973C108.647 77.3565 108.938 77.6917 109.292 77.9556C109.649 78.2226 110.062 78.41 110.501 78.5052C110.94 78.6004 111.395 78.6008 111.835 78.5065C112.273 78.4124 112.687 78.2248 113.045 77.959L113.753 77.4404L119.25 72.9115L118.925 74.9378C118.479 77.723 118.036 80.4851 117.566 83.2478C117.258 84.4723 117.258 85.7513 117.567 86.9754C117.7 87.6643 118.041 88.2985 118.545 88.7972C119.053 89.3 119.704 89.6416 120.414 89.7779C121.123 89.914 121.858 89.8386 122.522 89.5611C123.178 89.2879 123.735 88.8309 124.124 88.2484C125.031 87.1485 125.595 85.8169 125.75 84.412C125.983 82.4281 126.246 80.4172 126.51 78.4068C126.814 76.0897 127.118 73.7731 127.374 71.5011L127.375 71.494C127.622 69.0069 127.741 66.5096 127.733 64.0107C127.787 63.2211 127.586 62.4344 127.158 61.7621C126.728 61.0875 126.092 60.563 125.34 60.2629C124.557 59.9149 123.681 59.8219 122.841 59.9978C122.006 60.1724 121.25 60.603 120.683 61.2268C119.669 62.144 118.718 63.1255 117.835 64.1649L117.829 64.1719C116.866 65.346 115.91 66.543 114.959 67.7324C114.381 68.4554 113.805 69.1766 113.232 69.8869Z" fill="#3A3B7B"/>
</svg>
