<svg width="38" height="38" viewBox="0 0 38 38" fill="none" xmlns="http://www.w3.org/2000/svg">
<path d="M15.832 17.4165V12.6665L23.7487 18.9998L15.832 25.3332V20.5832H1.58203V17.4165H15.832ZM3.89053 23.7498H7.25353C8.35877 26.4717 10.3754 28.725 12.9585 30.1242C15.5415 31.5235 18.5305 31.9818 21.4141 31.4207C24.2978 30.8596 26.8969 29.314 28.7668 27.0483C30.6367 24.7826 31.6614 21.9375 31.6654 18.9998C31.667 16.059 30.6453 13.2093 28.7756 10.9394C26.9059 8.66955 24.3046 7.12097 21.418 6.55929C18.5313 5.99761 15.5392 6.45784 12.9548 7.86105C10.3703 9.26426 8.35469 11.523 7.25353 14.2498H3.89053C5.9077 7.82625 11.9085 3.1665 18.9987 3.1665C27.7434 3.1665 34.832 10.2551 34.832 18.9998C34.832 27.7446 27.7434 34.8332 18.9987 34.8332C11.9085 34.8332 5.9077 30.1734 3.89053 23.7498Z" fill="#143362"/>
</svg>
