<svg width="40" height="44" viewBox="0 0 40 44" fill="none" xmlns="http://www.w3.org/2000/svg">
<path d="M20 44C22.75 44 25 41.9692 25 39.4872H15C15 41.9692 17.25 44 20 44ZM35 30.4615V19.1795C35 12.2523 30.925 6.45333 23.75 4.91897V3.38462C23.75 1.51179 22.075 0 20 0C17.925 0 16.25 1.51179 16.25 3.38462V4.91897C9.1 6.45333 5 12.2297 5 19.1795V30.4615L0 34.9744V37.2308H40V34.9744L35 30.4615ZM30 32.7179H10V19.1795C10 13.5836 13.775 9.02564 20 9.02564C26.225 9.02564 30 13.5836 30 19.1795V32.7179Z" fill="#ECEADD"/>
</svg>
