<svg width="204" height="204" viewBox="0 0 204 204" fill="none" xmlns="http://www.w3.org/2000/svg">
<circle cx="102" cy="102" r="100" fill="black" fill-opacity="0.3" stroke="#ECEADD" stroke-width="4" stroke-linecap="round" stroke-linejoin="round"/>
<mask id="mask0_425_4009" style="mask-type:luminance" maskUnits="userSpaceOnUse" x="52" y="51" width="102" height="102">
<path d="M103.25 90.8149C105.82 90.8149 108.366 90.3086 110.741 89.3249C113.116 88.3411 115.274 86.8993 117.091 85.0816C118.909 83.2639 120.351 81.1059 121.335 78.731C122.318 76.356 122.825 73.8106 122.825 71.24C122.825 68.6694 122.318 66.1239 121.335 63.749C120.351 61.374 118.909 59.2161 117.091 57.3984C115.274 55.5807 113.116 54.1388 110.741 53.1551C108.366 52.1714 105.82 51.665 103.25 51.665C98.058 51.665 93.0791 53.7274 89.4081 57.3984C85.737 61.0694 83.6747 66.0484 83.6747 71.24C83.6747 76.4316 85.737 81.4105 89.4081 85.0816C93.0791 88.7526 98.058 90.8149 103.25 90.8149ZM52.9141 148.98V152.336H153.585V148.98C153.585 136.453 153.585 130.189 151.147 125.401C149.002 121.192 145.58 117.77 141.37 115.625C136.583 113.186 130.319 113.186 117.791 113.186H88.7082C76.1803 113.186 69.9163 113.186 65.1288 115.625C60.9196 117.77 57.4973 121.192 55.3525 125.401C52.9141 130.189 52.9141 136.453 52.9141 148.98Z" fill="white"/>
</mask>
<g mask="url(#mask0_425_4009)">
<path d="M36.1367 34.8862H170.365V169.114H36.1367V34.8862Z" fill="#ECEADD"/>
</g>
</svg>
