<svg width="32" height="32" viewBox="0 0 32 32" fill="none" xmlns="http://www.w3.org/2000/svg">
<path d="M28.4444 28.8V11.2H3.55556V28.8H28.4444ZM23.1111 0H26.6667V3.2H28.4444C29.3874 3.2 30.2918 3.53714 30.9586 4.13726C31.6254 4.73737 32 5.55131 32 6.4V28.8C32 30.576 30.4178 32 28.4444 32H3.55556C2.61256 32 1.70819 31.6629 1.0414 31.0627C0.374602 30.4626 0 29.6487 0 28.8V6.4C0 4.624 1.58222 3.2 3.55556 3.2H5.33333V0H8.88889V3.2H23.1111V0ZM14.2222 13.6H17.7778V18.4H23.1111V21.6H17.7778V26.4H14.2222V21.6H8.88889V18.4H14.2222V13.6Z" fill="#143362"/>
</svg>
