<svg width="38" height="38" viewBox="0 0 38 38" fill="none" xmlns="http://www.w3.org/2000/svg">
<path d="M33.7565 15.1207L30.764 14.1232L32.1732 11.3048C32.316 11.0098 32.3638 10.6778 32.3099 10.3545C32.256 10.0312 32.1031 9.73256 31.8723 9.49984L28.4998 6.12734C28.2659 5.89315 27.9644 5.73817 27.6378 5.68421C27.3112 5.63025 26.9759 5.68001 26.679 5.82651L23.8607 7.23568L22.8632 4.24318C22.7578 3.93125 22.5579 3.65992 22.2911 3.46694C22.0243 3.27397 21.7041 3.16895 21.3748 3.16651H16.6248C16.2929 3.16565 15.9691 3.26914 15.6992 3.46234C15.4293 3.65555 15.2269 3.92869 15.1207 4.24318L14.1232 7.23568L11.3048 5.82651C11.0098 5.68366 10.6778 5.63588 10.3545 5.68977C10.0312 5.74365 9.73256 5.89654 9.49984 6.12734L6.12734 9.49984C5.89315 9.7338 5.73817 10.0353 5.68421 10.3619C5.63025 10.6885 5.68001 11.0238 5.82651 11.3207L7.23568 14.139L4.24318 15.1365C3.93125 15.2419 3.65992 15.4418 3.46694 15.7086C3.27397 15.9753 3.16895 16.2956 3.16651 16.6248V21.3748C3.16565 21.7068 3.26914 22.0306 3.46234 22.3005C3.65555 22.5704 3.92869 22.7728 4.24318 22.879L7.23568 23.8765L5.82651 26.6948C5.68366 26.9898 5.63588 27.3219 5.68977 27.6452C5.74365 27.9685 5.89654 28.2671 6.12734 28.4998L9.49984 31.8723C9.7338 32.1065 10.0353 32.2615 10.3619 32.3155C10.6885 32.3694 11.0238 32.3197 11.3207 32.1732L14.139 30.764L15.1365 33.7565C15.2427 34.071 15.4451 34.3441 15.715 34.5373C15.9849 34.7305 16.3087 34.834 16.6407 34.8332H21.3907C21.7226 34.834 22.0464 34.7305 22.3163 34.5373C22.5863 34.3441 22.7886 34.071 22.8948 33.7565L23.8923 30.764L26.7107 32.1732C27.0038 32.3124 27.3326 32.3582 27.6526 32.3044C27.9726 32.2506 28.2684 32.0998 28.4998 31.8723L31.8723 28.4998C32.1065 28.2659 32.2615 27.9644 32.3155 27.6378C32.3694 27.3112 32.3197 26.9759 32.1732 26.679L30.764 23.8607L33.7565 22.8632C34.0684 22.7578 34.3398 22.5579 34.5327 22.2911C34.7257 22.0243 34.8307 21.7041 34.8332 21.3748V16.6248C34.834 16.2929 34.7305 15.9691 34.5373 15.6992C34.3441 15.4293 34.071 15.2269 33.7565 15.1207ZM31.6665 20.2348L29.7665 20.8682C29.3296 21.0099 28.9288 21.245 28.5918 21.5571C28.2548 21.8692 27.9897 22.2509 27.815 22.6757C27.6403 23.1005 27.56 23.5582 27.5799 24.0171C27.5997 24.476 27.7191 24.925 27.9298 25.3332L28.8323 27.1382L27.0907 28.8798L25.3332 27.9298C24.9271 27.7276 24.4824 27.6149 24.029 27.5994C23.5756 27.5839 23.1242 27.6661 22.7053 27.8402C22.2865 28.0144 21.9099 28.2765 21.6011 28.6088C21.2924 28.9412 21.0586 29.336 20.9157 29.7665L20.2823 31.6665H17.7648L17.1315 29.7665C16.9898 29.3296 16.7547 28.9288 16.4426 28.5918C16.1305 28.2548 15.7488 27.9897 15.324 27.815C14.8992 27.6403 14.4415 27.56 13.9826 27.5799C13.5237 27.5997 13.0746 27.7191 12.6665 27.9298L10.8615 28.8323L9.11984 27.0907L10.0698 25.3332C10.2806 24.925 10.4 24.476 10.4198 24.0171C10.4397 23.5582 10.3594 23.1005 10.1847 22.6757C10.01 22.2509 9.74491 21.8692 9.40792 21.5571C9.07094 21.245 8.67009 21.0099 8.23318 20.8682L6.33318 20.2348V17.7648L8.23318 17.1315C8.67009 16.9898 9.07094 16.7547 9.40792 16.4426C9.74491 16.1305 10.01 15.7488 10.1847 15.324C10.3594 14.8992 10.4397 14.4415 10.4198 13.9826C10.4 13.5237 10.2806 13.0746 10.0698 12.6665L9.16734 10.909L10.909 9.16734L12.6665 10.0698C13.0746 10.2806 13.5237 10.4 13.9826 10.4198C14.4415 10.4397 14.8992 10.3594 15.324 10.1847C15.7488 10.01 16.1305 9.74491 16.4426 9.40792C16.7547 9.07094 16.9898 8.67009 17.1315 8.23318L17.7648 6.33318H20.2348L20.8682 8.23318C21.0099 8.67009 21.245 9.07094 21.5571 9.40792C21.8692 9.74491 22.2509 10.01 22.6757 10.1847C23.1005 10.3594 23.5582 10.4397 24.0171 10.4198C24.476 10.4 24.925 10.2806 25.3332 10.0698L27.1382 9.16734L28.8798 10.909L27.9298 12.6665C27.7276 13.0725 27.6149 13.5173 27.5994 13.9707C27.5839 14.4241 27.6661 14.8755 27.8402 15.2943C28.0144 15.7132 28.2765 16.0898 28.6088 16.3986C28.9412 16.7073 29.336 16.9411 29.7665 17.084L31.6665 17.7173V20.2348ZM18.9998 12.6665C17.7472 12.6665 16.5227 13.038 15.4812 13.7339C14.4397 14.4298 13.628 15.4189 13.1486 16.5762C12.6693 17.7334 12.5438 19.0069 12.7882 20.2354C13.0326 21.464 13.6358 22.5925 14.5215 23.4782C15.4072 24.3639 16.5357 24.9671 17.7643 25.2115C18.9928 25.4559 20.2662 25.3304 21.4235 24.8511C22.5808 24.3717 23.5699 23.56 24.2658 22.5185C24.9617 21.4769 25.3332 20.2525 25.3332 18.9998C25.3332 17.3201 24.6659 15.7092 23.4782 14.5215C22.2905 13.3338 20.6795 12.6665 18.9998 12.6665ZM18.9998 22.1665C18.3735 22.1665 17.7613 21.9808 17.2405 21.6328C16.7198 21.2849 16.3139 20.7903 16.0742 20.2117C15.8345 19.633 15.7718 18.9963 15.894 18.3821C16.0162 17.7678 16.3178 17.2035 16.7607 16.7607C17.2035 16.3178 17.7678 16.0162 18.3821 15.894C18.9963 15.7718 19.633 15.8345 20.2117 16.0742C20.7903 16.3139 21.2849 16.7198 21.6328 17.2405C21.9808 17.7613 22.1665 18.3735 22.1665 18.9998C22.1665 19.8397 21.8329 20.6451 21.239 21.239C20.6451 21.8329 19.8397 22.1665 18.9998 22.1665Z" fill="#143362"/>
</svg>
