<svg width="49" height="49" viewBox="0 0 49 49" fill="none" xmlns="http://www.w3.org/2000/svg">
<g clip-path="url(#clip0_264_1927)">
<path d="M35.3099 15.8487L10.6893 13.0152C9.71838 12.9052 8.73713 13.0974 7.87939 13.5656C7.02165 14.0337 6.32915 14.7549 5.89631 15.631C5.46348 16.5071 5.31137 17.4954 5.46072 18.461C5.61008 19.4267 6.05363 20.3229 6.7309 21.0272L13.2098 27.7173C13.3611 27.881 13.4783 28.0732 13.5545 28.2826C13.6308 28.4921 13.6645 28.7147 13.6538 28.9373L12.991 38.2267C12.9359 39.0164 13.0789 39.8072 13.4071 40.5275C13.7354 41.2478 14.2384 41.8746 14.8705 42.351C15.5026 42.8274 16.2438 43.1383 17.0266 43.2554C17.8094 43.3726 18.6091 43.2922 19.353 43.0217C20.0471 42.7612 20.6742 42.3487 21.1883 41.8145L38.2274 23.8181C38.831 23.1775 39.2447 22.3818 39.4224 21.5198C39.6001 20.6577 39.5348 19.7633 39.2338 18.9362C38.9327 18.1091 38.4078 17.3819 37.7176 16.8358C37.0273 16.2896 36.1989 15.946 35.3248 15.8433L35.3099 15.8487ZM35.919 21.6422L18.8799 39.6386C18.6542 39.8695 18.3632 40.0259 18.0461 40.0867C17.729 40.1476 17.4009 40.11 17.1057 39.9791C16.8106 39.8482 16.5625 39.6302 16.3948 39.3543C16.227 39.0784 16.1477 38.7578 16.1673 38.4355L16.8152 29.1515C16.8224 29.028 16.8224 28.9043 16.8151 28.7808L27.0664 25.0497C27.461 24.9061 27.7824 24.6116 27.9598 24.231C28.1373 23.8504 28.1563 23.4149 28.0127 23.0203C27.8691 22.6257 27.5746 22.3043 27.194 22.1269C26.8134 21.9494 26.3779 21.9304 25.9833 22.074L15.732 25.8051C15.6583 25.7059 15.5787 25.6111 15.4939 25.5211L9.0299 18.8257C8.80769 18.5914 8.66242 18.2948 8.61356 17.9756C8.56471 17.6564 8.6146 17.33 8.75656 17.0399C8.89852 16.7499 9.12575 16.5103 9.40778 16.353C9.68982 16.1958 10.0132 16.1286 10.3345 16.1604L34.9551 18.9939C35.2442 19.03 35.5178 19.1453 35.7457 19.3269C35.9735 19.5086 36.1468 19.7496 36.2465 20.0234C36.3462 20.2973 36.3683 20.5933 36.3105 20.8789C36.2528 21.1646 36.1173 21.4287 35.919 21.6422Z" fill="#143362"/>
</g>
<defs>
<clipPath id="clip0_264_1927">
<rect width="38" height="38" fill="white" transform="translate(0 12.9966) rotate(-20)"/>
</clipPath>
</defs>
</svg>
