<svg width="38" height="38" viewBox="0 0 38 38" fill="none" xmlns="http://www.w3.org/2000/svg">
<mask id="path-1-inside-1_264_1932" fill="white">
<path d="M30.875 19.6959V16.625H28.5V20.1875C28.5001 20.5024 28.6252 20.8044 28.8479 21.0271L32.0625 24.2416V26.125H5.9375V24.2416L9.15206 21.0271C9.37478 20.8044 9.49993 20.5024 9.5 20.1875V15.4375C9.49669 13.7688 9.9338 12.1288 10.7672 10.6831C11.6005 9.23744 12.8007 8.03728 14.2463 7.20386C15.692 6.37044 17.332 5.93327 19.0006 5.93653C20.6693 5.93978 22.3076 6.38333 23.75 7.22237V4.56831C22.6196 4.06781 21.4173 3.7488 20.1875 3.62306V1.1875H17.8125V3.62188C14.8848 3.91986 12.1716 5.29283 10.1975 7.47529C8.22341 9.65776 7.12868 12.4947 7.125 15.4375V19.6959L3.91044 22.9104C3.68772 23.1331 3.56257 23.4351 3.5625 23.75V27.3125C3.5625 27.6274 3.68761 27.9295 3.91031 28.1522C4.13301 28.3749 4.43506 28.5 4.75 28.5H13.0625V29.6875C13.0625 31.2622 13.6881 32.7724 14.8016 33.8859C15.9151 34.9994 17.4253 35.625 19 35.625C20.5747 35.625 22.0849 34.9994 23.1984 33.8859C24.3119 32.7724 24.9375 31.2622 24.9375 29.6875V28.5H33.25C33.5649 28.5 33.867 28.3749 34.0897 28.1522C34.3124 27.9295 34.4375 27.6274 34.4375 27.3125V23.75C34.4374 23.4351 34.3123 23.1331 34.0896 22.9104L30.875 19.6959ZM22.5625 29.6875C22.5625 30.6323 22.1872 31.5385 21.5191 32.2066C20.851 32.8747 19.9448 33.25 19 33.25C18.0552 33.25 17.149 32.8747 16.4809 32.2066C15.8128 31.5385 15.4375 30.6323 15.4375 29.6875V28.5H22.5625V29.6875Z"/>
</mask>
<path d="M30.875 19.6959V16.625H28.5V20.1875C28.5001 20.5024 28.6252 20.8044 28.8479 21.0271L32.0625 24.2416V26.125H5.9375V24.2416L9.15206 21.0271C9.37478 20.8044 9.49993 20.5024 9.5 20.1875V15.4375C9.49669 13.7688 9.9338 12.1288 10.7672 10.6831C11.6005 9.23744 12.8007 8.03728 14.2463 7.20386C15.692 6.37044 17.332 5.93327 19.0006 5.93653C20.6693 5.93978 22.3076 6.38333 23.75 7.22237V4.56831C22.6196 4.06781 21.4173 3.7488 20.1875 3.62306V1.1875H17.8125V3.62188C14.8848 3.91986 12.1716 5.29283 10.1975 7.47529C8.22341 9.65776 7.12868 12.4947 7.125 15.4375V19.6959L3.91044 22.9104C3.68772 23.1331 3.56257 23.4351 3.5625 23.75V27.3125C3.5625 27.6274 3.68761 27.9295 3.91031 28.1522C4.13301 28.3749 4.43506 28.5 4.75 28.5H13.0625V29.6875C13.0625 31.2622 13.6881 32.7724 14.8016 33.8859C15.9151 34.9994 17.4253 35.625 19 35.625C20.5747 35.625 22.0849 34.9994 23.1984 33.8859C24.3119 32.7724 24.9375 31.2622 24.9375 29.6875V28.5H33.25C33.5649 28.5 33.867 28.3749 34.0897 28.1522C34.3124 27.9295 34.4375 27.6274 34.4375 27.3125V23.75C34.4374 23.4351 34.3123 23.1331 34.0896 22.9104L30.875 19.6959ZM22.5625 29.6875C22.5625 30.6323 22.1872 31.5385 21.5191 32.2066C20.851 32.8747 19.9448 33.25 19 33.25C18.0552 33.25 17.149 32.8747 16.4809 32.2066C15.8128 31.5385 15.4375 30.6323 15.4375 29.6875V28.5H22.5625V29.6875Z" fill="#143362"/>
<path d="M30.875 19.6959H19.875V24.2522L23.0968 27.4741L30.875 19.6959ZM30.875 16.625H41.875V5.625H30.875V16.625ZM28.5 16.625V5.625H17.5V16.625H28.5ZM28.5 20.1875H17.5V20.1898L28.5 20.1875ZM28.8479 21.0271L36.6261 13.2489L36.6249 13.2477L28.8479 21.0271ZM32.0625 24.2416H43.0625V19.6853L39.8407 16.4634L32.0625 24.2416ZM32.0625 26.125V37.125H43.0625V26.125H32.0625ZM5.9375 26.125H-5.0625V37.125H5.9375V26.125ZM5.9375 24.2416L-1.84067 16.4634L-5.0625 19.6853V24.2416H5.9375ZM9.15206 21.0271L1.37506 13.2477L1.37389 13.2489L9.15206 21.0271ZM9.5 20.1875L20.5 20.1898V20.1875H9.5ZM9.5 15.4375H20.5V15.4266L20.5 15.4157L9.5 15.4375ZM23.75 7.22237L18.219 16.7307L34.75 26.3468V7.22237H23.75ZM23.75 4.56831H34.75V-2.59122L28.2035 -5.48984L23.75 4.56831ZM20.1875 3.62306H9.1875V13.5558L19.0687 14.566L20.1875 3.62306ZM20.1875 1.1875H31.1875V-9.8125H20.1875V1.1875ZM17.8125 1.1875V-9.8125H6.8125V1.1875H17.8125ZM17.8125 3.62188L18.9263 14.5653L28.8125 13.5591V3.62188H17.8125ZM7.125 15.4375L-3.875 15.4237V15.4375H7.125ZM7.125 19.6959L14.9032 27.4741L18.125 24.2522V19.6959H7.125ZM3.91044 22.9104L11.6874 30.6898L11.6886 30.6886L3.91044 22.9104ZM3.5625 23.75L-7.4375 23.7477V23.75H3.5625ZM3.5625 27.3125H-7.4375H3.5625ZM13.0625 28.5H24.0625V17.5H13.0625V28.5ZM13.0625 29.6875H2.0625H13.0625ZM24.9375 28.5V17.5H13.9375V28.5H24.9375ZM34.4375 23.75H45.4375V23.7477L34.4375 23.75ZM34.0896 22.9104L26.3114 30.6886L26.3126 30.6898L34.0896 22.9104ZM22.5625 29.6875H33.5625H22.5625ZM15.4375 28.5V17.5H4.4375V28.5H15.4375ZM22.5625 28.5H33.5625V17.5H22.5625V28.5ZM41.875 19.6959V16.625H19.875V19.6959H41.875ZM30.875 5.625H28.5V27.625H30.875V5.625ZM17.5 16.625V20.1875H39.5V16.625H17.5ZM17.5 20.1898C17.5007 23.4219 18.7852 26.5213 21.0709 28.8064L36.6249 13.2477C38.4653 15.0875 39.4994 17.583 39.5 20.1852L17.5 20.1898ZM21.0698 28.8052L24.2843 32.0198L39.8407 16.4634L36.6261 13.2489L21.0698 28.8052ZM21.0625 24.2416V26.125H43.0625V24.2416H21.0625ZM32.0625 15.125H5.9375V37.125H32.0625V15.125ZM16.9375 26.125V24.2416H-5.0625V26.125H16.9375ZM13.7157 32.0198L16.9302 28.8052L1.37389 13.2489L-1.84067 16.4634L13.7157 32.0198ZM16.9291 28.8064C19.2148 26.5213 20.4993 23.4219 20.5 20.1898L-1.5 20.1852C-1.49944 17.5829 -0.465267 15.0875 1.37506 13.2477L16.9291 28.8064ZM20.5 20.1875V15.4375H-1.5V20.1875H20.5ZM20.5 15.4157C20.5005 15.6828 20.4305 15.9453 20.2971 16.1767L1.23719 5.18954C-0.562951 8.31232 -1.50713 11.8548 -1.49998 15.4593L20.5 15.4157ZM20.2971 16.1767C20.1637 16.4081 19.9716 16.6002 19.7402 16.7336L8.75239 -2.32593C5.62968 -0.525683 3.03733 2.06675 1.23719 5.18954L20.2971 16.1767ZM19.7402 16.7336C19.5088 16.867 19.2463 16.937 18.9792 16.9365L19.0221 -5.06345C15.4176 -5.07048 11.8751 -4.12617 8.75239 -2.32593L19.7402 16.7336ZM18.9792 16.9365C18.7121 16.936 18.4499 16.865 18.219 16.7307L29.281 -2.28593C26.1653 -4.09833 22.6266 -5.05643 19.0221 -5.06345L18.9792 16.9365ZM34.75 7.22237V4.56831H12.75V7.22237H34.75ZM28.2035 -5.48984C26.015 -6.45885 23.6873 -7.07646 21.3063 -7.31989L19.0687 14.566C19.1473 14.5741 19.2242 14.5945 19.2965 14.6265L28.2035 -5.48984ZM31.1875 3.62306V1.1875H9.1875V3.62306H31.1875ZM20.1875 -9.8125H17.8125V12.1875H20.1875V-9.8125ZM6.8125 1.1875V3.62188H28.8125V1.1875H6.8125ZM16.6987 -7.32159C11.0628 -6.74797 5.8398 -4.10497 2.03964 0.096318L18.3554 14.8543C18.5034 14.6906 18.7068 14.5877 18.9263 14.5653L16.6987 -7.32159ZM2.03964 0.096318C-1.76053 4.29761 -3.8679 9.75875 -3.87499 15.4237L18.125 15.4513C18.1253 15.2306 18.2073 15.0179 18.3554 14.8543L2.03964 0.096318ZM-3.875 15.4375V19.6959H18.125V15.4375H-3.875ZM-0.653173 11.9177L-3.86774 15.1323L11.6886 30.6886L14.9032 27.4741L-0.653173 11.9177ZM-3.86656 15.1311C-6.15233 17.4162 -7.43681 20.5156 -7.4375 23.7477L14.5625 23.7523C14.5619 26.3546 13.5278 28.85 11.6874 30.6898L-3.86656 15.1311ZM-7.4375 23.75V27.3125H14.5625V23.75H-7.4375ZM-7.4375 27.3125C-7.4375 30.5448 -6.15347 33.6448 -3.86786 35.9304L11.6885 20.374C13.5287 22.2142 14.5625 24.7101 14.5625 27.3125H-7.4375ZM-3.86786 35.9304C-1.58225 38.216 1.5177 39.5 4.75 39.5V17.5C7.35241 17.5 9.84827 18.5338 11.6885 20.374L-3.86786 35.9304ZM4.75 39.5H13.0625V17.5H4.75V39.5ZM2.0625 28.5V29.6875H24.0625V28.5H2.0625ZM2.0625 29.6875C2.0625 34.1796 3.84698 38.4877 7.02338 41.6641L22.5797 26.1078C23.5291 27.0572 24.0625 28.3448 24.0625 29.6875H2.0625ZM7.02338 41.6641C10.1998 44.8405 14.5079 46.625 19 46.625V24.625C20.3427 24.625 21.6303 25.1584 22.5797 26.1078L7.02338 41.6641ZM19 46.625C23.4921 46.625 27.8002 44.8405 30.9766 41.6641L15.4203 26.1078C16.3697 25.1584 17.6573 24.625 19 24.625V46.625ZM30.9766 41.6641C34.153 38.4877 35.9375 34.1796 35.9375 29.6875H13.9375C13.9375 28.3448 14.4709 27.0572 15.4203 26.1078L30.9766 41.6641ZM35.9375 29.6875V28.5H13.9375V29.6875H35.9375ZM24.9375 39.5H33.25V17.5H24.9375V39.5ZM33.25 39.5C36.4823 39.5 39.5822 38.216 41.8679 35.9304L26.3115 20.374C28.1517 18.5338 30.6476 17.5 33.25 17.5V39.5ZM41.8679 35.9304C44.1535 33.6447 45.4375 30.5448 45.4375 27.3125H23.4375C23.4375 24.7101 24.4713 22.2142 26.3115 20.374L41.8679 35.9304ZM45.4375 27.3125V23.75H23.4375V27.3125H45.4375ZM45.4375 23.7477C45.4368 20.5156 44.1523 17.4162 41.8666 15.1311L26.3126 30.6898C24.4722 28.85 23.4381 26.3545 23.4375 23.7523L45.4375 23.7477ZM41.8677 15.1323L38.6532 11.9177L23.0968 27.4741L26.3114 30.6886L41.8677 15.1323ZM11.5625 29.6875C11.5625 27.715 12.3461 25.8232 13.7409 24.4284L29.2972 39.9847C32.0282 37.2537 33.5625 33.5497 33.5625 29.6875H11.5625ZM13.7409 24.4284C15.1357 23.0336 17.0275 22.25 19 22.25V44.25C22.8622 44.25 26.5662 42.7157 29.2972 39.9847L13.7409 24.4284ZM19 22.25C20.9725 22.25 22.8643 23.0336 24.2591 24.4284L8.70276 39.9847C11.4338 42.7157 15.1378 44.25 19 44.25V22.25ZM24.2591 24.4284C25.6539 25.8232 26.4375 27.715 26.4375 29.6875H4.4375C4.4375 33.5497 5.97176 37.2537 8.70276 39.9847L24.2591 24.4284ZM26.4375 29.6875V28.5H4.4375V29.6875H26.4375ZM15.4375 39.5H22.5625V17.5H15.4375V39.5ZM11.5625 28.5V29.6875H33.5625V28.5H11.5625Z" fill="#143362" mask="url(#path-1-inside-1_264_1932)"/>
<path d="M30.875 14.25C33.4984 14.25 35.625 12.1234 35.625 9.5C35.625 6.87665 33.4984 4.75 30.875 4.75C28.2516 4.75 26.125 6.87665 26.125 9.5C26.125 12.1234 28.2516 14.25 30.875 14.25Z" fill="#FD7B46"/>
</svg>
